# xmcd
#
# Track frame offsets:
#	150
#	16930
#	25730
#	48035
#	64637
#	78490
#	93882
#	111177
#	125542
#	139757
#	154890
#	172157
#	193940
#	206435
#	224872
#	244152
#	261395
#	271392
#	283550
#	300655
#
# Disc length: 4194 seconds
#
# Revision: 2
# Processed by: cddbd v1.5.2PL0 Copyright (c) Steve Scherf et al.
# Submitted via: audiograbber 1.83.01
#
DISCID=27106014
DTITLE=Tony Joe White - The Best of Tony Joe White
DYEAR=1993
DGENRE=Blues
TTITLE0=Polk Salad Annie
TTITLE1=Soul Fransisco
TTITLE2=Willie and Laura Mae Jones
TTITLE3=Rainy night in Georgia
TTITLE4=Roosevelt and Ira Lee (Night of the Mossacin)
TTITLE5=Stockholm Blues
TTITLE6=High Sheriff of Calhoun Parrish
TTITLE7=Old man Willis
TTITLE8=The train I'm on
TTITLE9=If I ever saw a good thing
TTITLE10=As the crow flies
TTITLE11=Even Trolls love Rock and Roll
TTITLE12=Backwoods preacher man
TTITLE13=Takin' the midnight train
TTITLE14=Did somebody make a fool out of you
TTITLE15=They caught the devil and put him in jail in Eudora, Arkansas
TTITLE16=Saturday Night in Oak Grove, Louisiana
TTITLE17=I've got a thing about you baby
TTITLE18=For ol' times sake
TTITLE19=Ol' Mother Earth
EXTD=
EXTT0=
EXTT1=
EXTT2=
EXTT3=
EXTT4=
EXTT5=
EXTT6=
EXTT7=
EXTT8=
EXTT9=
EXTT10=
EXTT11=
EXTT12=
EXTT13=
EXTT14=
EXTT15=
EXTT16=
EXTT17=
EXTT18=
EXTT19=
PLAYORDER=
